<?xml version="1.0" standalone="no"?>
<!DOCTYPE svg PUBLIC "-//W3C//DTD SVG 20010904//EN"
 "http://www.w3.org/TR/2001/REC-SVG-20010904/DTD/svg10.dtd">
<svg version="1.0" xmlns="http://www.w3.org/2000/svg"
 width="310.000000pt" height="310.000000pt" viewBox="0 0 310.000000 310.000000"
 preserveAspectRatio="xMidYMid meet">
<metadata>
Created by potrace 1.11, written by Peter Selinger 2001-2013
</metadata>
<g transform="translate(0.000000,310.000000) scale(0.100000,-0.100000)"
fill="#000000" stroke="none">
<path d="M459 3065 c-129 -42 -270 -148 -349 -266 -44 -64 -65 -109 -91 -199
-18 -62 -19 -112 -19 -1050 0 -938 1 -988 19 -1050 10 -36 27 -83 36 -104 49
-114 183 -256 300 -318 137 -71 80 -68 1195 -68 1115 0 1058 -3 1195 68 117
62 251 204 300 318 9 21 26 68 36 104 18 62 19 112 19 1050 0 938 -1 988 -19
1050 -26 90 -47 135 -91 199 -80 119 -220 224 -352 266 l-79 25 -1012 0 -1012
-1 -76 -24z m351 -1510 l0 -645 -155 0 -155 0 0 645 0 645 155 0 155 0 0 -645z
m1420 635 c193 -25 329 -165 361 -369 7 -47 9 -166 7 -325 -4 -238 -6 -254
-29 -317 -43 -113 -125 -196 -236 -241 -56 -22 -70 -23 -415 -26 -223 -2 -378
1 -414 7 -172 32 -302 161 -334 330 -17 90 -13 556 5 626 43 165 168 279 340
310 85 16 604 19 715 5z"/>
<path d="M1524 1871 c-52 -32 -55 -52 -52 -334 l3 -257 33 -32 32 -33 325 -3
c288 -3 329 -1 360 14 62 29 65 44 65 323 0 138 -4 261 -10 275 -5 14 -24 35
-42 46 -31 19 -51 20 -358 20 -300 0 -327 -1 -356 -19z"/>
</g>
</svg>
